<mxfile host="app.diagrams.net" modified="2023-10-17T19:55:28.881Z" agent="Mozilla/5.0 (Windows NT 10.0; Win64; x64) AppleWebKit/537.36 (KHTML, like Gecko) Chrome/118.0.0.0 Safari/537.36" etag="z6mvqtjcVk3TQFcdogEn" version="22.0.4" type="device">
  <diagram id="C5RBs43oDa-KdzZeNtuy" name="Page-1">
    <mxGraphModel dx="1877" dy="647" grid="1" gridSize="10" guides="1" tooltips="1" connect="1" arrows="1" fold="1" page="1" pageScale="1" pageWidth="827" pageHeight="1169" math="0" shadow="0">
      <root>
        <mxCell id="WIyWlLk6GJQsqaUBKTNV-0" />
        <mxCell id="WIyWlLk6GJQsqaUBKTNV-1" parent="WIyWlLk6GJQsqaUBKTNV-0" />
        <mxCell id="fwqIISZKZRSPrbPEB3uj-13" value="Start" style="rounded=1;whiteSpace=wrap;html=1;" vertex="1" parent="WIyWlLk6GJQsqaUBKTNV-1">
          <mxGeometry x="40" width="120" height="50" as="geometry" />
        </mxCell>
        <mxCell id="fwqIISZKZRSPrbPEB3uj-16" value="Yes" style="edgeStyle=orthogonalEdgeStyle;rounded=0;orthogonalLoop=1;jettySize=auto;html=1;" edge="1" parent="WIyWlLk6GJQsqaUBKTNV-1" source="fwqIISZKZRSPrbPEB3uj-14" target="fwqIISZKZRSPrbPEB3uj-15">
          <mxGeometry relative="1" as="geometry" />
        </mxCell>
        <mxCell id="fwqIISZKZRSPrbPEB3uj-18" value="No" style="edgeStyle=orthogonalEdgeStyle;rounded=0;orthogonalLoop=1;jettySize=auto;html=1;" edge="1" parent="WIyWlLk6GJQsqaUBKTNV-1" source="fwqIISZKZRSPrbPEB3uj-14" target="fwqIISZKZRSPrbPEB3uj-17">
          <mxGeometry x="-0.0909" relative="1" as="geometry">
            <mxPoint as="offset" />
          </mxGeometry>
        </mxCell>
        <mxCell id="fwqIISZKZRSPrbPEB3uj-14" value="is year cleanly divisible by 4?" style="strokeWidth=2;html=1;shape=mxgraph.flowchart.decision;whiteSpace=wrap;" vertex="1" parent="WIyWlLk6GJQsqaUBKTNV-1">
          <mxGeometry x="50" y="100" width="100" height="100" as="geometry" />
        </mxCell>
        <mxCell id="fwqIISZKZRSPrbPEB3uj-21" value="No" style="edgeStyle=orthogonalEdgeStyle;rounded=0;orthogonalLoop=1;jettySize=auto;html=1;" edge="1" parent="WIyWlLk6GJQsqaUBKTNV-1" source="fwqIISZKZRSPrbPEB3uj-15" target="fwqIISZKZRSPrbPEB3uj-20">
          <mxGeometry relative="1" as="geometry" />
        </mxCell>
        <mxCell id="fwqIISZKZRSPrbPEB3uj-23" value="Yes" style="edgeStyle=orthogonalEdgeStyle;rounded=0;orthogonalLoop=1;jettySize=auto;html=1;" edge="1" parent="WIyWlLk6GJQsqaUBKTNV-1" source="fwqIISZKZRSPrbPEB3uj-15" target="fwqIISZKZRSPrbPEB3uj-22">
          <mxGeometry relative="1" as="geometry" />
        </mxCell>
        <mxCell id="fwqIISZKZRSPrbPEB3uj-15" value="is year cleanly divisible by 100?" style="strokeWidth=2;html=1;shape=mxgraph.flowchart.decision;whiteSpace=wrap;" vertex="1" parent="WIyWlLk6GJQsqaUBKTNV-1">
          <mxGeometry x="230" y="260" width="100" height="100" as="geometry" />
        </mxCell>
        <mxCell id="fwqIISZKZRSPrbPEB3uj-17" value="Not a leap year" style="rounded=1;whiteSpace=wrap;html=1;strokeWidth=2;fillColor=#f8cecc;strokeColor=#b85450;" vertex="1" parent="WIyWlLk6GJQsqaUBKTNV-1">
          <mxGeometry x="-100" y="220" width="120" height="60" as="geometry" />
        </mxCell>
        <mxCell id="fwqIISZKZRSPrbPEB3uj-19" value="" style="endArrow=classic;html=1;rounded=0;" edge="1" parent="WIyWlLk6GJQsqaUBKTNV-1" source="fwqIISZKZRSPrbPEB3uj-13" target="fwqIISZKZRSPrbPEB3uj-14">
          <mxGeometry width="50" height="50" relative="1" as="geometry">
            <mxPoint x="390" y="360" as="sourcePoint" />
            <mxPoint x="440" y="310" as="targetPoint" />
          </mxGeometry>
        </mxCell>
        <mxCell id="fwqIISZKZRSPrbPEB3uj-20" value="Leap Year" style="whiteSpace=wrap;html=1;strokeWidth=2;fillColor=#d5e8d4;strokeColor=#82b366;" vertex="1" parent="WIyWlLk6GJQsqaUBKTNV-1">
          <mxGeometry x="80" y="370" width="120" height="60" as="geometry" />
        </mxCell>
        <mxCell id="fwqIISZKZRSPrbPEB3uj-27" value="No" style="edgeStyle=orthogonalEdgeStyle;rounded=0;orthogonalLoop=1;jettySize=auto;html=1;" edge="1" parent="WIyWlLk6GJQsqaUBKTNV-1" source="fwqIISZKZRSPrbPEB3uj-22" target="fwqIISZKZRSPrbPEB3uj-26">
          <mxGeometry relative="1" as="geometry" />
        </mxCell>
        <mxCell id="fwqIISZKZRSPrbPEB3uj-28" value="Yes" style="edgeStyle=orthogonalEdgeStyle;rounded=0;orthogonalLoop=1;jettySize=auto;html=1;entryX=0.5;entryY=0;entryDx=0;entryDy=0;" edge="1" parent="WIyWlLk6GJQsqaUBKTNV-1" source="fwqIISZKZRSPrbPEB3uj-22" target="fwqIISZKZRSPrbPEB3uj-25">
          <mxGeometry relative="1" as="geometry" />
        </mxCell>
        <mxCell id="fwqIISZKZRSPrbPEB3uj-22" value="is year cleanly divisible by 400?" style="strokeWidth=2;html=1;shape=mxgraph.flowchart.decision;whiteSpace=wrap;" vertex="1" parent="WIyWlLk6GJQsqaUBKTNV-1">
          <mxGeometry x="410" y="400" width="100" height="100" as="geometry" />
        </mxCell>
        <mxCell id="fwqIISZKZRSPrbPEB3uj-25" value="Leap year" style="rounded=1;whiteSpace=wrap;html=1;fillColor=#d5e8d4;strokeColor=#82b366;" vertex="1" parent="WIyWlLk6GJQsqaUBKTNV-1">
          <mxGeometry x="540" y="560" width="120" height="60" as="geometry" />
        </mxCell>
        <mxCell id="fwqIISZKZRSPrbPEB3uj-26" value="Not a leap year" style="rounded=1;whiteSpace=wrap;html=1;fillColor=#f8cecc;strokeColor=#b85450;" vertex="1" parent="WIyWlLk6GJQsqaUBKTNV-1">
          <mxGeometry x="270" y="510" width="120" height="60" as="geometry" />
        </mxCell>
      </root>
    </mxGraphModel>
  </diagram>
</mxfile>
